<svg xmlns="http://www.w3.org/2000/svg" width="128" height="128" viewBox="0 0 128 128">
  <!-- Background with rounded corners -->
  <rect width="128" height="128" rx="24" fill="#1e40af"/>

  <!-- Lucide volume-2 icon scaled and centered (white) -->
  <g transform="translate(20, 20) scale(3.667)" stroke="white" stroke-width="2" stroke-linecap="round" stroke-linejoin="round" fill="none">
    <path d="M11 4.702a.705.705 0 0 0-1.203-.498L6.413 7.587A1.4 1.4 0 0 1 5.416 8H3a1 1 0 0 0-1 1v6a1 1 0 0 0 1 1h2.416a1.4 1.4 0 0 1 .997.413l3.383 3.384A.705.705 0 0 0 11 19.298z" />
    <path d="M16 9a5 5 0 0 1 0 6" />
    <path d="M19.364 18.364a9 9 0 0 0 0-12.728" />
  </g>
</svg>
